<svg width="16" height="16" viewBox="0 0 16 16" fill="none" xmlns="http://www.w3.org/2000/svg">
<path d="M3.33325 6.66634H4.66659C5.99992 6.66634 6.66658 5.99967 6.66658 4.66634V3.33301C6.66658 1.99967 5.99992 1.33301 4.66659 1.33301H3.33325C1.99992 1.33301 1.33325 1.99967 1.33325 3.33301V4.66634C1.33325 5.99967 1.99992 6.66634 3.33325 6.66634Z" stroke="#292526" stroke-miterlimit="10" stroke-linecap="round" stroke-linejoin="round"/>
<path d="M11.3333 6.66634H12.6666C13.9999 6.66634 14.6666 5.99967 14.6666 4.66634V3.33301C14.6666 1.99967 13.9999 1.33301 12.6666 1.33301H11.3333C9.99992 1.33301 9.33325 1.99967 9.33325 3.33301V4.66634C9.33325 5.99967 9.99992 6.66634 11.3333 6.66634Z" stroke="#292526" stroke-miterlimit="10" stroke-linecap="round" stroke-linejoin="round"/>
<path d="M11.3333 14.6663H12.6666C13.9999 14.6663 14.6666 13.9997 14.6666 12.6663V11.333C14.6666 9.99967 13.9999 9.33301 12.6666 9.33301H11.3333C9.99992 9.33301 9.33325 9.99967 9.33325 11.333V12.6663C9.33325 13.9997 9.99992 14.6663 11.3333 14.6663Z" stroke="#292526" stroke-miterlimit="10" stroke-linecap="round" stroke-linejoin="round"/>
<path d="M3.33325 14.6663H4.66659C5.99992 14.6663 6.66658 13.9997 6.66658 12.6663V11.333C6.66658 9.99967 5.99992 9.33301 4.66659 9.33301H3.33325C1.99992 9.33301 1.33325 9.99967 1.33325 11.333V12.6663C1.33325 13.9997 1.99992 14.6663 3.33325 14.6663Z" stroke="#292526" stroke-miterlimit="10" stroke-linecap="round" stroke-linejoin="round"/>
</svg>
