<svg width="20" height="20" viewBox="0 0 20 20" fill="none" xmlns="http://www.w3.org/2000/svg">
<path d="M6.59336 17.8435C6.45487 17.7451 6.30926 17.6167 6.20772 17.4803L6.19883 17.4682C5.65102 17.6433 5.09576 17.6472 4.5293 17.6462C3.74703 17.6448 3.41518 17.5705 2.83389 16.9579C2.4151 16.5165 2.34291 16.433 2.44758 15.8579L2.59551 15.1197C3.10778 12.7003 4.31223 10.3041 5.97451 8.48388L6.40905 8.0288C6.47291 7.96243 6.55731 7.8903 6.60651 7.81323C7.17772 6.91841 7.21637 5.83704 6.79473 4.86987L6.56262 4.39936C6.19375 3.56897 6.34748 2.6721 6.92469 1.98284C7.05198 1.83083 7.1818 1.66241 7.40584 1.70445C8.16606 1.84711 8.69916 2.45075 9.22852 2.96065L9.99596 3.68173C10.0492 3.64417 10.0928 3.59468 10.14 3.55003L10.8897 2.8404C11.3466 2.39239 11.9633 1.78427 12.6227 1.69251C12.9755 1.65995 13.3623 2.3595 13.4636 2.62882L13.5159 2.76386C13.6603 3.1895 13.6635 3.70731 13.5281 4.13612C13.4704 4.31858 13.3872 4.48946 13.3218 4.66815L12.8662 6.00306C12.7981 6.22374 12.8349 6.76222 12.8956 6.98487C12.9974 7.35907 13.1919 7.60349 13.4554 7.87735L13.9074 8.34905C14.9529 9.46394 15.9926 11.0449 16.5675 12.4855L16.9207 13.4111L17.2607 14.5383C17.292 14.707 17.3448 14.8761 17.3829 15.0441L17.5203 15.6887C17.5398 15.7893 17.5611 15.8932 17.5779 15.9941L17.5848 16.0294C17.6711 16.3975 17.4894 16.6165 17.2578 16.8659C16.8249 17.332 16.4912 17.57 15.8467 17.5739L15.412 17.5775C15.1171 17.5879 14.8392 17.6299 14.5403 17.6051C14.468 17.599 13.8274 17.4694 13.8206 17.4725C13.8065 17.4789 13.7676 17.5331 13.7549 17.5465L13.5644 17.7332C12.7727 18.4433 11.3156 18.4703 10.4287 17.9471C10.279 17.8587 10.1641 17.7455 10.0247 17.647C9.99613 17.6268 9.99256 17.6489 9.96936 17.6698L9.8485 17.7751C8.99987 18.4649 7.4625 18.4733 6.59336 17.8435ZM7.40784 2.27186C7.19547 2.49778 7.03916 2.77286 6.9609 3.07274C6.86905 3.42474 6.93252 4.04253 7.16127 4.34177C7.98955 4.29124 8.67344 4.8187 8.88696 5.60126C8.89809 5.64206 8.89619 5.71511 8.92141 5.74599L11.091 5.73729C11.2206 4.96095 11.8989 4.30788 12.7083 4.33938C12.7626 4.34151 12.842 4.3796 12.8659 4.32134L12.978 4.03403C13.1991 3.4004 13.0219 2.75931 12.58 2.27753C11.9977 2.56476 11.8165 2.7206 11.369 3.15435L10.3489 4.1555C10.0039 4.49517 9.95424 4.45876 9.60846 4.11604L8.64284 3.16772C8.34313 2.87337 8.06231 2.58798 7.68256 2.39606L7.40784 2.27186ZM7.39155 4.89395L7.54362 5.34653C7.58547 5.5188 7.5926 5.65608 7.62342 5.82112L7.93436 5.81421C8.06225 5.8052 8.19713 5.78753 8.32526 5.79638L8.35989 5.78632C8.2795 5.37052 7.95194 5.02034 7.54006 4.92069L7.39155 4.89395ZM12.5846 4.89481L12.4659 4.92087C12.1427 4.99017 11.8437 5.25095 11.7164 5.55077L11.6583 5.70819C11.6784 5.72204 11.7203 5.71505 11.7457 5.71444L12.3595 5.71261L12.6721 4.89155L12.5846 4.89481ZM11.7737 6.27052L8.94157 6.312C8.80369 6.31294 8.65692 6.30788 8.52057 6.32978L8.38727 6.34579C8.30922 6.35845 8.22321 6.35624 8.14412 6.35794L7.64127 6.36454C7.5977 6.68421 7.4928 7.37454 7.31676 7.64981L8.11785 7.64352L12.5613 7.62802C12.3398 7.28671 12.2749 6.66349 12.2756 6.26956L11.7737 6.27052ZM8.82465 8.1956L7.69621 11.6164L6.83721 15.2346L6.56328 17.042C6.73619 17.3104 7.22071 17.6025 7.52369 17.6637L7.54121 17.6667C8.26737 17.8642 9.06987 17.7169 9.62844 17.2037C9.67438 17.1614 9.72356 17.1676 9.72604 17.0893L9.72612 8.1927L8.82465 8.1956ZM10.4612 8.19595C10.4008 8.19925 10.3339 8.20686 10.2741 8.20001L10.2708 16.9972C10.2706 17.1777 10.2731 17.1146 10.4036 17.2288C10.7651 17.5454 11.2257 17.7374 11.7102 17.7434L12.0801 17.7377C12.3928 17.7083 12.6906 17.6207 12.9671 17.4715C13.1576 17.3519 13.2864 17.206 13.4435 17.0493L13.1393 15.1501C12.8701 13.7707 12.5416 12.4078 12.1339 11.0621L11.2075 8.31147C11.195 8.26942 11.1915 8.23392 11.1688 8.19536L10.4612 8.19595ZM11.7572 8.19774L12.66 10.9099L13.1788 12.7692L13.4504 13.9272C13.4662 13.9811 13.4712 14.0374 13.4839 14.092L13.6176 14.6904L13.9258 16.5139C13.9458 16.6456 13.9626 16.777 13.9783 16.9091C14.164 16.9533 14.3544 17.0129 14.544 17.0347C14.8829 17.0737 15.2075 17.0255 15.5455 17.0143C16.0708 16.997 16.2485 17.0525 16.6732 16.6697L17.0539 16.2417C17.018 15.9331 16.9465 15.6253 16.8823 15.3214C16.4167 13.1157 15.411 11.006 13.9736 9.26749L13.1807 8.3894C13.1184 8.3263 13.0587 8.25583 12.991 8.19894L11.7572 8.19774ZM7.98436 8.19665C7.87807 8.20358 7.77692 8.21927 7.6719 8.22558L7.06971 8.23157C7.02854 8.23173 6.98926 8.21794 6.95807 8.25175L6.85067 8.37954C6.44744 8.81438 6.0375 9.23677 5.67426 9.70722L5.20235 10.3787C4.40778 11.5654 3.8235 12.8261 3.40338 14.1908L2.95635 16.1428C2.92577 16.3186 3.34463 16.7135 3.47289 16.8023C3.837 17.0912 4.07354 17.0772 4.50481 17.0787C5.07895 17.0808 5.46352 17.0846 6.02684 16.9126C6.04813 16.8024 6.05455 16.6911 6.0701 16.5801L6.23293 15.4738L7.02748 11.9735L7.57973 10.1488L8.22651 8.20142L7.98436 8.19665Z" fill="#292526"/>
</svg>
