<svg width="20" height="20" viewBox="0 0 20 20" fill="none" xmlns="http://www.w3.org/2000/svg">
<path d="M13.3474 16.2183L12.405 16.4491C11.7894 16.5979 11.1529 16.7169 10.5185 16.7467L9.22789 16.7207C8.47334 16.6658 7.95688 16.5388 7.22455 16.3607L6.32008 16.1286C6.0426 16.0585 5.6309 16.053 5.55274 15.7098C5.53317 15.6239 5.55289 15.5036 5.55436 15.415L5.5968 13.9439C5.60272 13.83 5.62176 13.7175 5.62522 13.6031L5.66578 12.5211L5.71242 10.6176C5.71572 10.4585 5.73842 10.3007 5.74629 10.1419L5.71852 8.94866C5.68408 8.51225 5.63789 8.10696 5.44697 7.70373C5.39906 7.73096 5.35574 7.76662 5.30904 7.79604C5.03274 7.97016 4.69818 8.0441 4.40992 8.1985C4.13209 8.34733 3.90606 8.6158 3.57869 8.65377L3.56434 8.65534C3.1917 8.69991 2.87033 8.32797 2.66299 8.06864C2.24008 7.53963 1.65294 6.47532 2.09842 5.80817C2.24402 5.59014 2.53625 5.46305 2.75525 5.33082L3.64567 4.79719L4.37359 4.28748C5.08598 3.74203 5.28934 3.58366 6.24012 3.43535L7.43295 3.26153C7.53895 3.24473 7.6432 3.23657 7.74889 3.21483C8.16516 3.16834 8.415 3.46084 8.51496 3.83742C8.6952 4.51637 9.53217 4.85914 10.1954 4.80801C10.739 4.7661 11.2417 4.39289 11.4658 3.90004C11.5064 3.81057 11.519 3.71481 11.5538 3.62436C11.7027 3.2369 12.0224 3.18649 12.3709 3.23985L13.7426 3.43315C14.6715 3.58035 14.9306 3.74465 15.6936 4.33586L17.1058 5.24856C17.4213 5.43213 17.8132 5.58897 17.9746 5.94215C18.2375 6.51725 17.8546 7.34325 17.5307 7.81004C17.3 8.14254 16.9693 8.57901 16.5458 8.65119C16.2802 8.69649 16.0586 8.50276 15.8596 8.35846C15.4484 8.06037 14.9383 7.98471 14.5405 7.70328C14.3812 8.02629 14.284 8.65006 14.2598 8.99973C14.2437 9.23317 14.247 9.46787 14.2468 9.70174L14.254 10.4005L14.2971 11.4839C14.2988 11.5738 14.3148 11.663 14.3176 11.7528L14.378 13.9009L14.4167 14.6284C14.4198 14.7172 14.4376 14.8041 14.4423 14.8921L14.4454 15.2943C14.4504 15.574 14.5227 15.9112 14.1666 16.0147L13.3474 16.2183ZM7.8317 3.81301C7.81889 3.87061 7.83422 3.93358 7.84598 3.99053L7.89395 4.20547C7.89777 4.2245 7.90381 4.23918 7.91033 4.25735L7.93338 4.33239C7.95732 4.41563 8.00877 4.51594 8.04609 4.59426C8.50326 5.55338 9.39252 6.3593 10.5302 6.01352C11.1403 5.82809 11.5762 5.29772 11.8626 4.75366L12.0235 4.39155C12.061 4.28418 12.1818 3.9352 12.1503 3.82278L12.1323 3.81203C12.0853 3.85444 12.0675 3.98008 12.0437 4.04213C11.3293 5.90649 8.59123 5.84455 7.90924 3.93164C7.89557 3.89328 7.88473 3.84221 7.85713 3.81215L7.8317 3.81301ZM12.7499 3.88418C12.7158 4.06205 12.6933 4.23883 12.6415 4.41325C12.2574 5.70528 11.0413 6.93324 9.60545 6.6501L9.55041 6.63787C9.44467 6.61266 9.33943 6.59442 9.23627 6.55803C8.13514 6.16965 7.38483 5.02397 7.24567 3.89617L6.42486 4.00967C5.55 4.13549 5.41838 4.22629 4.69582 4.77971L4.1859 5.14717L2.71721 6.04162C2.63733 6.08887 2.58904 6.10209 2.55652 6.19094L2.55176 6.2034C2.35918 6.7252 3.12434 7.81215 3.51813 8.08254C3.69961 7.95694 3.8668 7.82119 4.06238 7.71559C4.37207 7.54834 4.70514 7.44069 5.0193 7.28555C5.13693 7.22746 5.23908 7.14881 5.3515 7.08231L5.59553 5.78258C5.62947 5.54848 5.6768 5.23133 5.99121 5.28196C6.08774 5.2975 6.16227 5.38285 6.1976 5.46953L6.20207 5.4801C6.25729 5.6235 6.16688 5.92303 6.14207 6.07057L5.92055 7.18209C5.90233 7.25666 5.91924 7.26598 5.94545 7.3384L6.22524 8.22817C6.30551 8.48789 6.32483 9.13485 6.3277 9.43143L6.31949 10.6994C6.31602 10.8043 6.29346 10.9061 6.29065 11.0116L6.2741 11.9101L6.21682 13.3296C6.19596 13.7264 6.19459 14.1426 6.16156 14.5302L6.13131 15.4768C6.18053 15.5098 6.23002 15.5099 6.28567 15.522L6.94813 15.685C7.64672 15.8622 8.33268 16.0371 9.05016 16.1111L9.26352 16.1386C10.0449 16.208 10.9527 16.1554 11.7138 16.0061L13.7294 15.516C13.7775 15.5041 13.8271 15.4989 13.872 15.4774L13.8008 13.9562L13.7924 13.4388L13.7155 11.9185L13.7099 11.0678C13.7067 10.9051 13.6828 10.7465 13.6755 10.5852L13.6703 9.64887C13.6714 8.86168 13.698 8.22199 14.0013 7.46592L14.0648 7.31815C14.0931 7.25553 14.0946 7.25071 14.0809 7.18471L13.8194 5.89285C13.6617 5.09539 14.245 5.176 14.3463 5.50735L14.3513 5.52219C14.392 5.64657 14.3907 5.78957 14.4169 5.91717L14.6323 6.96908C14.6844 7.26543 15.2585 7.40096 15.5161 7.51225C15.8634 7.66231 16.1738 7.84942 16.4753 8.07735C16.9236 7.71778 17.6936 6.73391 17.412 6.11543C17.2854 6.02606 17.1415 5.95518 17.0077 5.87621L15.2469 4.74065C15.1701 4.68506 15.1011 4.61832 15.0259 4.56051C14.5786 4.21696 14.2436 4.10457 13.7024 4.02559L13.203 3.94461C13.0537 3.9245 12.8974 3.9136 12.7499 3.88418Z" fill="#292526"/>
<path d="M10.0953 9.56082L9.56008 9.6709C9.52883 9.74623 9.51229 9.83365 9.49068 9.91248L9.22535 11.0941L9.04443 12.4593C8.99701 12.7766 8.43002 12.9682 8.47387 12.2221L8.65026 10.8695L8.86658 9.87459L8.59617 9.92588C8.32566 9.98309 8.05168 9.90598 8.15719 9.56242L8.16233 9.54627C8.23109 9.32424 8.52465 9.30951 8.71793 9.26137L10.7909 8.82721C10.9782 8.79305 11.1636 8.74615 11.353 8.72461C11.4843 8.73092 11.5759 8.78869 11.633 8.91057L11.6517 8.95178C11.668 8.99484 11.6657 9.0598 11.6464 9.1009L11.6412 9.1117C11.5621 9.28656 11.4212 9.4534 11.3105 9.61096L11.0407 10.0158C10.9751 10.1156 10.8961 10.2259 10.8547 10.3384C11.0622 10.3027 11.3033 10.5113 11.2164 10.7244L11.2107 10.7377C11.1128 10.9727 10.8245 10.9721 10.6088 10.9949C10.5613 11.1175 10.5277 11.2462 10.4924 11.3726L10.3105 12.1454C10.29 12.2505 10.2891 12.3678 10.264 12.4686C10.1673 12.8581 9.70565 12.7671 9.68371 12.5164L9.68297 12.5053C9.66268 12.3194 9.69221 12.1265 9.72438 11.9437L9.90627 11.1357C9.79443 11.1617 9.60473 11.2108 9.49912 11.1521C9.3293 11.0578 9.33484 10.8419 9.4294 10.6934C9.50041 10.5818 9.66088 10.5698 9.77854 10.5411L10.0923 10.4646L10.6809 9.43732L10.0953 9.56082Z" fill="#292526"/>
</svg>
