<svg width="20" height="20" viewBox="0 0 20 20" fill="none" xmlns="http://www.w3.org/2000/svg">
<path d="M10.4916 10.9504C10.429 10.743 10.4055 10.1864 10.3877 9.96167L10.3272 9.31645C10.284 8.83319 10.3249 8.19057 9.99423 7.79134C9.83626 7.98265 9.75802 8.28843 9.73048 8.52663L9.63472 9.86788C9.57989 10.5795 9.47384 11.2906 9.34222 11.9916L8.8514 14.1492C8.73753 14.5365 8.62632 14.924 8.51747 15.3127C8.24296 16.293 8.09366 17.0178 8.013 18.0327L8.00022 18.3016C7.99382 18.7417 7.88226 18.7417 7.52024 18.7423L6.18646 18.7425C6.06364 18.7425 5.85923 18.7827 5.75392 18.7096L5.74228 18.7013C5.59532 18.6003 5.5961 18.5266 5.59579 18.3653L5.59304 16.6872C5.58935 16.5004 5.56042 16.3049 5.54208 16.1182L5.13118 12.7722L4.97325 10.7521L4.96259 10.2213C4.95661 10.0937 4.93153 9.96764 4.92657 9.84044L4.91745 9.17499C4.91558 9.09938 4.90188 9.02534 4.89917 8.95038L4.92849 6.84819L4.95646 6.55075C5.01292 5.72698 5.11526 5.25388 5.337 4.45893L5.92587 2.29999L6.05583 1.71579C6.10261 1.50364 6.10269 1.32803 6.34536 1.26114L13.4901 1.25781C13.6631 1.25839 13.7757 1.26995 13.8597 1.4486L13.8672 1.46503C13.8833 1.49934 13.8951 1.53521 13.9017 1.57271L14.9259 5.49985C14.977 5.66055 14.9871 5.8472 15.0049 6.01431L15.0452 6.46503C15.0511 6.52532 15.0631 6.58516 15.0665 6.64569L15.083 7.667L15.0642 10.0641C15.0612 10.1505 15.0395 10.2359 15.0361 10.3224L15.0237 10.8449C15.0208 10.9071 15.0072 10.9681 15.0031 11.0301L14.8608 12.8858L14.454 16.0298L14.4165 16.6253L14.3974 18.1957C14.3993 18.3894 14.4444 18.5679 14.2652 18.6964L14.2498 18.7074C14.1601 18.7721 14.0238 18.742 13.9196 18.7422L12.6032 18.7423C11.9045 18.7417 12.04 18.6518 11.9953 18.0793L11.8823 17.0363C11.8236 16.5721 11.7045 16.1184 11.5807 15.6684L11.1428 14.1213C10.9318 13.3423 10.7371 12.5502 10.6066 11.7531L10.4916 10.9504ZM7.34304 1.77021L6.55853 1.77405C6.53216 1.83823 6.52372 1.90765 6.50888 1.97509L6.4244 2.37323C6.38962 2.51997 6.33562 2.66848 6.30956 2.81634L12.6246 2.81731L13.6959 2.8147L13.4878 1.94304C13.4759 1.89873 13.4666 1.80245 13.4381 1.77301L7.34304 1.77021ZM6.17663 3.32073L5.65597 5.16548C5.7155 5.12321 5.77335 5.08097 5.81845 5.02268C6.13354 4.64559 6.35573 3.82841 6.47747 3.3296L6.17663 3.32073ZM6.9961 3.31868C6.97749 3.42514 6.98411 3.53325 6.96472 3.64046C6.86444 4.19491 6.58708 5.17386 6.13284 5.49452L5.94849 5.61397C5.75099 5.73766 5.56853 5.64663 5.54708 5.76679C5.51552 5.9436 5.51011 6.126 5.49235 6.30442L5.41106 7.19042L5.4102 9.43436C5.42179 9.68665 5.44659 9.93927 5.45745 10.1906L5.46956 10.6245C5.47341 10.6954 5.48921 10.7631 5.49315 10.8335L5.62909 12.7921C5.63483 12.8479 5.64761 12.903 5.6523 12.9592L6.0587 16.426C6.0788 16.6861 6.09892 16.9371 6.09937 17.1987L6.10972 18.0236C6.11233 18.0862 6.10394 18.1493 6.11337 18.211L7.51454 18.2108C7.53942 17.7669 7.55958 17.3134 7.63532 16.8743C7.78612 16.0002 8.04294 15.1601 8.28601 14.3091L8.71081 12.6223C8.85384 11.9522 8.9804 11.269 9.05901 10.5883L9.13421 9.75669C9.15825 9.48393 9.17315 9.22815 9.19097 8.95628L9.21159 8.77141C9.24671 8.34005 9.30085 7.95514 9.53696 7.58102C10.0619 6.74932 10.5986 7.59661 10.7071 8.17579L10.7528 8.43751C10.7786 8.57063 10.7732 8.71356 10.7866 8.84864L10.9036 10.2634L11.0564 11.4337L11.3722 13.0305L11.5791 13.8112L11.6034 13.9102C11.6068 13.9274 11.6119 13.941 11.6176 13.9573L11.6841 14.2113C11.6875 14.2258 11.6918 14.2383 11.6966 14.2522L12.2022 16.0652C12.2532 16.227 12.2782 16.4067 12.3067 16.5738L12.4662 17.8213C12.4746 17.9499 12.4914 18.0735 12.4934 18.2037C12.5221 18.2157 12.5652 18.21 12.5969 18.21L12.8658 18.2101C13.2074 18.2103 13.5563 18.2269 13.897 18.2094L13.8995 17.0776C13.9004 16.7148 13.9231 16.3841 13.9554 16.0256L14.295 13.4637L14.5046 11.0302C14.5116 10.9136 14.5318 10.7994 14.535 10.6823L14.5787 9.54704L14.5979 8.18638L14.5455 6.52546C14.5282 6.26007 14.5149 5.99255 14.4732 5.7296C14.4139 5.7046 14.3439 5.70116 14.2823 5.6821C14.0232 5.60188 13.7667 5.45811 13.589 5.24895L13.5798 5.23829C13.4356 5.06356 13.3705 4.80862 13.2984 4.59852C13.2623 4.49337 13.2046 4.39739 13.1666 4.29393C13.0518 3.98098 13.0161 3.65233 13.0177 3.32089L10.6473 3.33151C10.7395 3.55661 10.7793 3.77632 10.7918 4.02024L10.7919 5.28339C10.7904 5.32116 10.793 5.387 10.7742 5.42073L10.762 5.43841C10.719 5.50132 10.6788 5.55477 10.6001 5.5746C10.2504 5.66259 10.3053 5.22702 10.3087 5.04415L10.3111 4.52206C10.3117 4.12858 10.3393 3.65884 10.0307 3.36743C10.0242 3.53858 10.0528 3.71593 10.0578 3.88932C10.066 4.17589 10.0635 4.46526 10.0333 4.75042L9.99687 4.99233C9.9679 5.19964 9.81995 5.89805 9.50683 5.84583C9.20671 5.79577 9.30866 5.53233 9.37153 5.35055L9.47911 4.98893C9.5413 4.73958 9.57226 4.45329 9.56632 4.19573L9.53319 3.41792C9.53171 3.39026 9.53534 3.35216 9.52267 3.32815L6.9961 3.31868ZM13.544 3.31958C13.5474 3.63768 13.6555 3.98763 13.7508 4.28729C13.7911 4.41423 13.8613 4.52319 13.9149 4.64391C13.9996 4.83448 14.0431 5.01073 14.2478 5.11237L14.3387 5.15171L13.8813 3.4886C13.8676 3.43368 13.8605 3.37354 13.8336 3.32366L13.643 3.31973C13.6148 3.31971 13.5704 3.3261 13.544 3.31958Z" fill="#292526"/>
</svg>
